<svg width="190" height="224" fill="none" xmlns="http://www.w3.org/2000/svg">
    <path fill-rule="evenodd" clip-rule="evenodd" d="M149.911 210.299c0 3.945-4.612 6.611-7.403 7.037.645-1.066 2.039-3.092 7.403-7.357v.32zM21.199 189.38a12.339 12.339 0 0 0-1.698-.574l-.05-.01.011-.106c.347-3.435.82-6.812 1.387-10.233.28-1.698.569-3.431.87-5.104.155-.839.32-1.672.5-2.499.185-.826.392-1.64.614-2.447a33.273 33.273 0 0 1 1.705-4.668c.332-.745.727-1.477 1.11-2.191a23.92 23.92 0 0 1 1.281-2.047c1.828-2.612 4.131-4.864 6.851-5.907a8.965 8.965 0 0 1 2.091-.533c.359-.04.723-.067 1.089-.069.367.008.733.023 1.097.068 1.459.196 2.871.69 4.082 1.401 1.21.72 2.193 1.687 2.825 2.789.157.278.307.557.419.852a10.206 10.206 0 0 1 .717 3.051c.232 2.855-.648 5.929-2.137 8.643-1.529 2.784-3.61 5.404-5.879 7.927a69.316 69.316 0 0 1-3.512 3.648 64.743 64.743 0 0 1-3.775 3.35 50.628 50.628 0 0 1-4.022 3.023c-1.307.887-2.682 1.667-4.08 2.388a11.28 11.28 0 0 0-1.496-.752zm38.239-6.329c2.252 0 4.183 2.88 4.183 9.275l-.108 2.027-11.905 4.264c.643-9.808 4.612-15.566 7.83-15.566zm44.495 0c2.254 0 4.185 2.88 4.185 9.275l-.108 2.027-11.603 4.156c.025-.325-.037-.619-.232-.81.822-9.25 4.642-14.648 7.758-14.648zm24.886 0c2.253 0 4.183 2.88 4.183 9.275l-.107 2.027-11.906 4.264c.642-9.808 4.612-15.566 7.83-15.566zm46.593.043c2.252 0 4.183 2.878 4.183 9.275l-.106 2.027-11.908 4.263c.645-9.807 4.613-15.565 7.831-15.565zm13.73 15.352c-.323 0-.858.428-1.179 1.279-5.15 11.515-10.728 18.338-14.696 18.338-3.433 0-5.793-5.01-5.793-16.419l12.657-4.904c1.181-.852 1.718-3.197 1.718-5.969 0-5.652-2.36-13.008-7.403-13.221h-.213c-8.154 0-12.874 13.966-13.087 22.282v1.172l.001.221a96.578 96.578 0 0 0-7.002 3.423c-2.953-3.395-5.46-7.204-7.155-11.366-.927-2.275-1.596-4.903-.558-7.131.831-1.783 2.609-2.949 4.426-3.719 1.82-.77 3.765-1.243 5.519-2.151.685-.354 2.076-1.134 1.771-2.108-.345-1.101-2.546-.82-3.418-.71-3.175.403-6.323 1.422-8.894 3.316-2.573 1.893-4.529 4.718-4.985 7.866-.399 2.754.341 5.555 1.415 8.121.036.084.075.166.112.249-2.743 6.763-5.877 13.455-11.058 18.549-.813.799-1.687 1.563-2.731 2.028-1.041.464-2.284.596-3.321.121-1.132-.519-1.844-1.649-2.358-2.777-1.885-4.124-1.959-8.808-2-13.338 3.637-1.405 7.271-2.812 10.908-4.219.778-.3 1.583-.618 2.16-1.217.762-.79 1.002-1.935 1.128-3.023a21.611 21.611 0 0 0-1.263-10.082c-.778-2.048-2-4.099-4.003-5.01-1.666-.756-3.657-.587-5.322.171-3.824 1.749-6.027 6.011-7.463 9.729-1.601 4.146-2.328 8.578-2.451 13.017-.023.893-.02 1.785 0 2.677-4.591 9.101-9.326 14.381-12.816 14.381-3.433 0-5.791-5.012-5.791-16.419l12.656-4.905c1.181-.853 1.717-3.198 1.717-5.97 0-5.652-2.36-13.008-7.403-13.221h-.213c-8.153 0-12.871 13.968-13.087 22.282v1.174c0 1.631.053 3.164.153 4.61-.476.761-.95 1.499-1.419 2.191-1.933 2.842-3.849 5.323-5.997 8.008-.61.761-1.54 1.912-2.852 1.988-.975.056-1.902-.528-2.477-1.311-.575-.783-.85-1.743-1.042-2.693-.487-2.412-.516-4.888-.464-7.346.318-15.203 3.588-30.168 6.242-45.144.226-1.277.373-2.794-.583-3.675-.867-.798-2.216-.67-3.38-.471-.5.086-1.034.193-1.39.551-.338.339-.447.834-.542 1.301a377.554 377.554 0 0 0-4.108 24.384c-.903 6.693-1.626 13.422-1.728 20.176l-.003.172c-4.583 9.064-9.303 14.318-12.785 14.318-3.432 0-5.792-5.012-5.792-16.419l12.656-4.905c1.181-.853 1.718-3.198 1.718-5.97 0-5.652-2.361-13.008-7.402-13.221h-.213c-8.153 0-12.874 13.968-13.088 22.282v1.174c0 2.288.101 4.391.293 6.313-1.72 3.835-3.603 7.557-6.491 10.583-.424.443-.892.884-1.483 1.05-1.54.432-2.873-1.121-3.596-2.537-3.578-7.024-3.661-15.416-7.286-22.414 8.126-6.145 16.494-12.57 21.322-21.511 1.534-2.842 2.686-5.936 2.938-9.152.252-3.214-.457-6.567-2.35-9.186-2.91-4.023-8.392-5.782-13.293-4.876-2.742.505-5.3 1.767-7.476 3.483-2.226 1.756-4.087 3.946-5.328 6.487-1.329 2.717-2.2 5.632-2.83 8.58a78.438 78.438 0 0 0-.814 4.536c-.09-.456-.189-.914-.303-1.371-.263-1.016-.597-2.029-1.054-2.996-.91-1.972-2.337-3.806-4.335-5.018a9.393 9.393 0 0 0-1.591-.767 8.946 8.946 0 0 0-1.75-.43 8.145 8.145 0 0 0-1.814-.042c-.63.041-1.241.196-1.823.394-.583.2-1.132.469-1.64.787a8.707 8.707 0 0 0-1.407 1.079 9.29 9.29 0 0 0-2.056 2.792 10.193 10.193 0 0 0-.944 3.264 9.718 9.718 0 0 0-.04 1.695c.034.548.103 1.09.204 1.622.413 2.137 1.324 4.063 2.401 5.785 1.092 1.72 2.313 3.293 3.576 4.781.789.93 1.59 1.782 2.384 2.646.222.262.442.524.673.789.312.33.836.74 1.323.964.777.36 1.4.295 1.626-.188.136-.291-.026-.954-.67-1.603-.403-.46-.792-.915-1.175-1.366-.759-.933-1.518-1.856-2.243-2.787-1.172-1.5-2.319-2.988-3.198-4.584-.892-1.583-1.561-3.244-1.78-4.915-.108-.834-.124-1.678.004-2.434a7.027 7.027 0 0 1 .76-2.224c.37-.67.853-1.289 1.42-1.793.28-.255.586-.474.903-.66.317-.187.645-.339.98-.442a4.427 4.427 0 0 1 1.011-.202 4.9 4.9 0 0 1 1.082.023 6.063 6.063 0 0 1 2.112.677 8.053 8.053 0 0 1 3.29 3.462c.389.763.723 1.567.932 2.418.222.848.344 1.729.416 2.624.144 1.79.078 3.64-.062 5.527a68.11 68.11 0 0 1-.606 5.614l-.638 3.93c-.68.46-1.466.791-2.004 1.406-1.388 1.58-.48 3.983-.013 6.028.714 3.144.168 6.419-.377 9.594-.74 4.295-1.48 8.59-2.218 12.884-.222 1.286-.405 2.738.386 3.779 1.174 1.541 3.82 1.043 5.038-.461 1.22-1.506 1.411-3.565 1.552-5.491l1.378-18.837 2.445-.977c3.337 6.688 3.384 14.699 7.108 21.182 1.281 2.229 3.257 4.377 5.83 4.606 2.736.244 5.14-1.744 6.923-3.821 2.079-2.425 3.775-5.119 5.254-7.945 1.464 7.467 4.65 11.181 8.67 11.181 4.479 0 10.037-4.648 15.436-14.113.134 2.584.445 5.153 1.09 7.659.378 1.472.883 2.947 1.797 4.164.918 1.218 2.303 2.16 3.83 2.241 1.895.104 3.608-1.086 4.996-2.371 2.61-2.417 4.675-5.348 6.646-8.303.567-.849 1.126-1.703 1.679-2.559 1.253 8.87 4.64 13.282 9.022 13.282 4.545 0 10.199-4.785 15.672-14.53.372 3.416 1.151 6.796 2.758 9.822 1.088 2.048 2.715 4.018 4.976 4.581 2.592.645 5.253-.724 7.365-2.352 6.554-5.043 10.468-12.696 13.689-20.297 1.459 2.761 3.22 5.368 4.975 7.959-3.731 2.953-7.563 6.024-9.822 10.198-.335.619-.633 1.329-.656 2.013-.013.348.046.69.206 1.008.433.864 1.464 1.249 2.424 1.388 1.731.247 3.502-.059 5.161-.611 3.005-1.002 5.77-2.867 7.528-5.487 1.761-2.619 2.429-6.018 1.461-9.018a43.222 43.222 0 0 1 6.258-3.207c.513 12.409 4.304 18.576 9.484 18.576 5.471 0 12.549-6.931 18.987-21.11a4.256 4.256 0 0 0 .321-1.599c0-.853-.321-1.386-.858-1.386zM141.726 52.36c-8.782 17.737-23.844 31.296-39.624 42.766-4.434 3.223-8.973 6.274-14.095 9.051-2.748 1.598-5.532 2.923-8.336 4.169l1.02-12.513c.09-.333.147-.677.191-1.013 2.492-18.707 4.437-37.753 11.373-55.304 3.88-9.815 9.641-19.39 18.642-24.899 9.002-5.507 21.783-5.807 29.371 1.528 4.653 4.497 6.757 11.197 6.629 17.666-.13 6.47-2.3 12.749-5.171 18.549zm12.864-37.35C150.087 7.825 142.391 2.93 134.135.995c-7.064-1.656-14.613-1.25-21.422 1.256-7.952 2.93-14.672 8.601-19.716 15.33-8.552 11.405-12.447 25.632-14.684 39.712-.059.372-.114.745-.171 1.117-.309-.906-.603-1.794-.811-2.623-.656-2.562-1.498-5.12-2.64-7.562-2.283-4.978-5.86-9.603-10.876-12.66a23.583 23.583 0 0 0-3.99-1.939 22.076 22.076 0 0 0-4.385-1.086 20.413 20.413 0 0 0-4.555-.105c-1.576.107-3.108.497-4.568.996a19.87 19.87 0 0 0-4.111 1.983 21.947 21.947 0 0 0-3.532 2.724 23.434 23.434 0 0 0-5.157 7.046 25.865 25.865 0 0 0-2.369 8.238 24.193 24.193 0 0 0-.096 4.275c.082 1.382.256 2.75.51 4.094 1.035 5.392 3.32 10.255 6.022 14.598 2.738 4.338 5.8 8.308 8.967 12.064 2.149 2.549 4.341 4.977 6.497 7.408a251.348 251.348 0 0 0 2.643 3.12c.993 1.057 2.1 1.866 3.319 2.434 1.952.908 3.512.742 4.078-.478.341-.731-.067-2.406-1.68-4.043a291.78 291.78 0 0 1-2.466-2.875c-2.556-3.198-5.136-6.31-7.58-9.467l-.257-.332c-3.069-4.085-5.74-7.988-8.005-11.674-2.112-3.862-3.696-7.9-4.223-11.962-.27-2.104-.311-4.234.011-6.14a17.83 17.83 0 0 1 1.905-5.615c.93-1.688 2.14-3.252 3.562-4.523a13.502 13.502 0 0 1 2.265-1.665 11.395 11.395 0 0 1 2.457-1.117c.84-.266 1.689-.449 2.538-.507.878-.085 1.815-.06 2.71.057 1.809.212 3.595.805 5.3 1.709 3.38 1.862 6.4 4.954 8.25 8.735.975 1.926 1.813 3.953 2.339 6.102.557 2.138.861 4.362 1.043 6.62.36 4.518.193 9.187-.158 13.949-.327 4.798-.588 7.52-1.065 12.426l-2.011 23.842h.001a86.629 86.629 0 0 0-.207 3.15c-.087 1.347-.156 2.588-.154 3.018.018 3.787 3.028 5.902 9.396 4.166.9-.246 2.556-.839 4.187-1.538.679-.144 1.324-.482 1.943-.818A198.087 198.087 0 0 0 139 77.362c10.237-11.94 19.344-25.95 20.331-41.646.45-7.183-.919-14.609-4.741-20.706z" fill="#fff"/>
</svg>
